# xmcd
#
# Track frame offsets:
#	150
#	21283
#	42353
#	63120
#	85013
#	106900
#
# Disc length: 1716 seconds
#
# Revision: 0
# Processed by: cddbd v1.5.1PL0 Copyright (c) Steve Scherf et al.
# Submitted via: audiograbber 1.83.01
#
DISCID=3f06b206
DTITLE=King Just - Warrior`s Drum
DYEAR=1900
DGENRE=Dance
TTITLE0=Warrior`s Drum
TTITLE1=Warrior`s Drum (Clean Version)
TTITLE2=Warrior`s Drum (Instrumental)
TTITLE3=MOVE ON` EM STOMP
TTITLE4=MOVE ON` EM STOMP (Clean Version)
TTITLE5=MOVE ON` EM STOMP (Instrumental)
EXTD=
EXTT0=
EXTT1=
EXTT2=
EXTT3=
EXTT4=
EXTT5=
PLAYORDER=
